<?xml version="1.0" encoding="utf-8"?>
<!-- Generator: Adobe Illustrator 16.0.0, SVG Export Plug-In . SVG Version: 6.00 Build 0)  -->
<!DOCTYPE svg PUBLIC "-//W3C//DTD SVG 1.1//EN" "http://www.w3.org/Graphics/SVG/1.1/DTD/svg11.dtd">
<svg version="1.1" id="圖層_1" xmlns="http://www.w3.org/2000/svg" xmlns:xlink="http://www.w3.org/1999/xlink" x="0px" y="0px"
	 width="271.288px" height="164.435px" viewBox="0 0 271.288 164.435" enable-background="new 0 0 271.288 164.435"
	 xml:space="preserve">
<g>
	<path fill-rule="evenodd" clip-rule="evenodd" fill="#F0A516" d="M187.705,41.038c0,0-2.249,22.655,20.014,20.555
		c20.676-1.95,17.403-24.209,17.403-24.209"/>
	<polyline fill-rule="evenodd" clip-rule="evenodd" fill="#F0A516" points="34.586,53.192 64.417,72.625 93.105,48.288 	"/>
</g>
<g display="none">
	<path display="inline" fill-rule="evenodd" clip-rule="evenodd" fill="#F0A516" d="M173.122,41.026c0,0,5,20.607,34.597,20.567
		c20.768-0.028,34.737-26.9,34.737-26.9"/>
	<polygon display="inline" fill-rule="evenodd" clip-rule="evenodd" fill="#F0A516" points="101.456,49.509 64.417,72.625 
		25.456,56.621 34.586,51.026 94.456,45.691 	"/>
</g>
<g>
	<g>
		<g>
			<path fill="#5D3B1D" d="M184.795,41.933c-0.037,4.166,1.101,8.504,2.988,12.188c4.006,7.82,12.295,9.965,20.476,9.338
				c12.797-0.981,22.526-11.967,21.851-24.775c-0.133-2.542-5.936-0.38-5.82,1.791c0.146,2.796-0.352,5.662-1.183,8.318
				c-2.405,7.684-8.665,10.958-16.488,10.808c-10.282-0.198-16.084-10.063-16.003-19.459
				C190.638,37.656,184.813,39.733,184.795,41.933L184.795,41.933z"/>
		</g>
	</g>
	<g>
		<g>
			<path fill="#5D3B1D" d="M33.03,55.361c9.753,6.167,19.507,12.333,29.26,18.499c1.03,0.651,2.538,1.033,3.591,0.165
				c9.753-8.044,19.506-16.089,29.26-24.134c2.825-2.331-1.438-6.838-4.07-4.666c-9.753,8.044-19.506,16.089-29.26,24.134
				c1.197,0.055,2.395,0.109,3.591,0.165c-9.753-6.167-19.507-12.333-29.26-18.499C32.824,48.927,29.673,53.239,33.03,55.361
				L33.03,55.361z"/>
		</g>
	</g>
</g>
<g>
	<path fill-rule="evenodd" clip-rule="evenodd" fill="#5D3B1D" d="M0,32.436c10.471-0.605,20.945-1.133,31.408-1.846
		c6.271-0.427,6.916-1.328,6.807-7.758c-0.051-2.963-0.008-5.928-0.008-9.957c5.634,1.521,10.717,2.894,16.545,4.467
		c-1.364,1.829-2.227,2.52-2.447,3.376c-0.518,2.009-1.432,4.355-0.806,6.059c0.396,1.077,3.284,1.747,5.04,1.718
		c4.818-0.083,9.631-0.625,14.443-0.998c3.705-0.287,5.215-2.306,5.026-5.991c-0.176-3.453-0.038-6.923-0.038-11.497
		c4.813,1.265,9.23,2.275,13.503,3.719c0.601,0.202,1.067,2.781,0.606,3.82c-2.799,6.306-1.635,8.067,5.107,8.124
		c7.107,0.06,13.174-1.201,16.322-8.635c1.348-3.183,3.838-3.421,6.408-1.138c2.238,1.988,4.592,3.897,6.537,6.149
		c2.986,3.456,2.363,5.23-2.239,5.768c-8.763,1.021-17.562,1.778-26.362,2.42c-4.568,0.332-7.22,1.51-7.38,7.02
		c-0.077,2.661-3.203,5.232-5.027,7.963c4.099,1.601,6.894-0.691,8.982-3.786c2.721-4.03,5.478-4.124,8.854-0.998
		c1.585,1.467,3.782,2.511,4.805,4.269c0.819,1.409,0.65,3.686,0.266,5.433c-0.555,2.507-2.392,4.858-2.473,7.315
		c-0.252,7.65,0.088,15.318,0.154,22.98c0.04,4.673-8.395,11.473-11.254,8.651c-7.618-7.519-15.91-2.623-23.685-2.373
		c-4.671,0.15-9.361,3.442-13.771,5.826c-1.389,0.751-1.891,3.138-3.284,5.65c2.828,0.252,4.567,0.645,6.269,0.521
		c14.284-1.029,28.559-2.201,42.844-3.221c4.502-0.32,7.311-2.764,9.301-6.525c2.272-4.295,5.158-4.617,8.684-1.4
		c1.842,1.682,3.955,3.092,5.64,4.908c0.898,0.969,1.87,2.842,1.489,3.762c-0.417,1.011-2.301,1.826-3.633,1.979
		c-7.442,0.853-14.916,1.436-22.369,2.202c-3.056,0.314-6.088,0.857-9.291,2.209c10.599,9.391,24.08,10.941,36.717,13.654
		c-2.59,4.281-4.732,8.33-7.438,11.961c-0.72,0.967-3.38,1.275-4.771,0.793c-3.276-1.137-6.298-2.988-9.47-4.449
		c-5.376-2.475-7.087-1.574-8.389,4.105c-1.261,5.504-2.19,11.135-4.046,16.438c-3.313,9.463-8.703,13.139-18.641,14
		c-1.941-3.17-3.213-6.859-5.779-8.984c-2.616-2.166-6.506-2.795-11.033-4.563c2.135-0.539,3.096-0.961,4.069-0.994
		c3.163-0.102,6.331-0.014,9.497-0.082c8.289-0.178,10.508-1.994,12.385-10.025c2.58-11.037,1.803-11.758-9.389-11.035
		c-6.756,0.434-11.313,2.584-14.996,9.057c-8.489,14.916-22.976,22.666-38.429,28.727c-2.751,1.078-5.509,2.143-8.263,3.213
		c-0.666,0-1.334,0-2,0c1.358-1.27,2.586-2.729,4.098-3.777c7.477-5.189,15.488-9.729,22.383-15.59
		c4.277-3.637,7.066-9.117,10.115-14.023c0.58-0.934-0.833-4.453-1.2-4.434c-8.743,0.469-17.697-1.672-26.005,3.709
		C14.064,134.417,6.83,137.114,0,140.435c0-0.666,0-1.334,0-2c11.771-6.834,21.242-16.189,29.185-27.102
		c2.548-3.5,1.565-5.193-2.772-4.926c-5.43,0.334-10.965,0.734-16.189,2.113C5.348,109.808,2.02,109.306,0,104.435
		c0-0.666,0-1.334,0-2c10.768-0.531,21.557-0.807,32.293-1.701c5.217-0.436,7.695-4.593,7.197-10.386
		c-4.744,2.013-9.516,4.037-15.502,6.576c0-18.547,0-35.225,0-52.159c4.481,1.412,9.05,2.851,14.097,4.44
		c0-3.612-0.167-6.087,0.038-8.531c0.342-4.103-1.265-5.944-5.451-5.394c-7.238,0.953-14.604,1.332-21.688,2.948
		C5.609,39.454,1.766,39.436,0,33.436C0,33.103,0,32.77,0,32.436z M91.021,55.938c-0.201-4.535-2.849-5.454-6.709-5.011
		c-1.812,0.209-29.318,2.122-41.21,3.344c-5.324,0.547-6.428,2.223-6.247,7.381l0.013,17.151c0.23,3.807,2.062,5.192,5.838,4.882
		c14.274-1.176,28.56-2.229,42.846-3.261c5.223-0.378,5.34-4.112,5.396-7.898L91.021,55.938z M77.063,46.614
		c-0.574-4.226-1.147-7.047-1.291-9.889c-0.152-3.031-1.223-4.72-4.501-4.462c-5.296,0.418-10.632,0.543-15.872,1.315
		c-1.547,0.228-3.525,1.955-4.099,3.457c-1.332,3.483-1.929,7.249-3.038,11.777C57.68,48.095,67.435,47.35,77.063,46.614z
		 M70.675,108.747c-1.237,2.006-2.635,3.695-3.388,5.635c-0.992,2.551-0.322,5.016,2.875,4.893
		c4.613-0.176,9.342-0.459,13.762-1.656c4.688-1.27,5.512-4.682,3.023-8.992c-3.959-6.863-15.832-8.743-23.383-3.453
		C66.027,106.411,68.342,107.575,70.675,108.747z M34.338,119.948c0.375,0.479,0.75,0.959,1.124,1.438
		c3.612,0,7.225,0.008,10.837-0.002c3.947-0.012,6.121-2.146,6.777-5.887c0.398-2.275,0.808-4.588,0.805-6.883
		c-0.006-4.289-2.977-6.143-6.039-3.342C42.955,109.743,38.801,115.015,34.338,119.948z"/>
	<path fill-rule="evenodd" clip-rule="evenodd" fill="#5D3B1D" d="M234.465,92.314c10.76,8.351,24.088,9.929,36.823,12.61
		c-2.565,4.197-4.915,8.439-7.735,12.342c-0.6,0.83-3.106,0.938-4.408,0.469c-3.113-1.119-6.024-2.797-9.031-4.221
		c-6.025-2.854-7.947-1.734-9.242,4.719c-1.109,5.527-2.297,11.096-4.133,16.41c-3.004,8.693-9.522,12.861-19.424,12.943
		c-0.217-9.01-7.275-10.953-14.668-12.516c0.155-0.605,0.311-1.213,0.467-1.818c3.313,0,6.625,0.035,9.937-0.006
		c11.222-0.141,17.089-6.625,15.771-17.797c-0.146-1.23-2.104-2.977-3.425-3.184c-2.75-0.432-5.638,0.104-8.467,0.066
		c-6.004-0.084-9.938,2.176-13.053,7.832c-7.757,14.086-20.827,22.102-35.238,28.105c-4.359,1.814-8.906,3.18-13.748,4.053
		c15.387-9.086,31.038-17.6,37.965-37.141c-10.216,0.771-19.518-2.15-28.305,3.496c-6.194,3.98-12.857,7.23-19.896,9.969
		c10.642-10.227,22.908-18.68,30.18-32.796c-8.494-1.742-15.727,0.121-22.982,1.569c-5.843,1.167-6.527,0.657-7.445-5.452
		c10.417-0.803,20.859-1.465,31.27-2.465c5.415-0.52,8.186-5.063,7.033-10.722c-3.645,1.785-7.191,3.807-10.955,5.267
		c-2.604,1.011-4.514,0.101-4.502-3.273c0.055-15.636,0.024-31.271,0.024-47.379c4.792,1.498,9.405,2.941,14.26,4.459
		c0-4.077,0.087-7.374-0.024-10.665c-0.113-3.338-2.543-3.536-5.003-3.227c-8.085,1.018-16.188,1.946-24.223,3.274
		c-6.349,1.05-6.559,1.111-7.968-5.977c9.109-0.556,18.182-1.098,27.254-1.664c10.42-0.649,11.035-1.384,9.998-11.689
		c-0.117-1.156-0.178-2.323-0.174-3.485c0.002-0.466,0.252-0.93,0.723-2.52c5.115,1.241,10.201,2.476,15.791,3.832
		c-0.871,1.674-1.295,2.198-1.424,2.787c-0.535,2.457-1.633,5.077-1.137,7.334c0.197,0.896,3.998,1.396,6.153,1.383
		c3.987-0.026,7.97-0.577,11.956-0.887c4.149-0.322,6.436-2.085,5.891-6.702c-0.327-2.772-0.061-5.616-0.061-9.65
		c5.426,0.795,10.538,1.544,15.65,2.292c-0.076,0.493-0.152,0.985-0.229,1.479c0,0.326,0.06,0.666-0.01,0.976
		c-0.615,2.732-1.252,5.459-1.883,8.188c2.649,0.447,5.287,1.165,7.951,1.286c6.332,0.288,11.279-1.978,14-8.15
		c1.617-3.669,4.121-3.957,7.002-1.244c2.18,2.052,4.537,3.958,6.46,6.229c2.784,3.287,2.134,4.843-2.278,5.331
		c-9.101,1.008-18.216,1.928-27.346,2.604c-4.429,0.328-6.287,2.016-6.749,6.689c-0.276,2.799-2.963,5.359-4.737,8.313
		c3.748,1.476,6.033-0.93,8.561-3.378c1.594-1.545,4.741-3.953,5.536-3.435c3.655,2.383,6.754,5.633,9.962,8.667
		c0.257,0.244,0.054,1.449-0.32,1.813c-5.124,5-3.738,11.411-3.775,17.462c-0.023,3.824,0.384,7.651,0.572,11.479
		c0.319,6.47-3.707,11.138-10.061,11.471c-0.996,0.053-2.738-0.494-2.936-1.135c-1.111-3.605-3.893-3.099-6.498-2.934
		c-6.15,0.388-12.463,0.17-18.381,1.58c-4.252,1.013-8.079,4.1-11.85,6.628c-0.88,0.589-1.193,2.755-0.926,4.017
		c0.137,0.641,2.182,1.322,3.308,1.236c15.438-1.183,30.896-2.244,46.269-4.02c2.652-0.307,5.515-3.384,7.264-5.891
		c2.716-3.894,5.142-4.759,8.716-1.391c1.328,1.252,3.084,2.104,4.226,3.485c1.291,1.563,2.112,3.515,3.138,5.298
		c-1.927,0.756-3.801,1.957-5.788,2.188c-7.939,0.918-15.916,1.506-23.871,2.288c-1.781,0.175-3.534,0.637-5.301,0.966
		C234.799,91.031,234.631,91.673,234.465,92.314z M234.32,44.097c-0.148-3.646-2.027-4.955-5.5-4.656
		c-14.551,1.256-29.104,2.504-43.664,3.666c-4.816,0.385-4.816,3.755-4.699,7.182l-0.139,16.655c0.25,4.85,2.756,6.434,5.328,5.808
		c16.015-1.42,30.07-2.636,44.118-3.925c5.585-0.513,4.367-4.888,4.448-8.349L234.32,44.097z M220.896,35.213
		c-0.229-0.523-0.458-1.047-0.687-1.57c-0.358-2.845-0.973-5.688-1.004-8.536c-0.033-3.016-1.334-4.365-4.184-4.176
		c-5.459,0.363-10.944,0.634-16.34,1.458c-1.447,0.221-3.188,2.071-3.787,3.575c-1.337,3.346-2.038,6.945-3.289,11.502
		C201.18,36.729,211.037,35.972,220.896,35.213z M214.342,97.577c-0.721,0.938-1.42,1.494-1.637,2.198
		c-0.691,2.251-1.204,4.558-1.785,6.843c1.846,0.428,3.688,1.176,5.541,1.209c2.805,0.049,5.661-0.174,8.416-0.699
		c3.318-0.633,6.65-1.77,7.064-5.854c0.315-3.116-5.313-10.354-8.187-10.276c-5.503,0.149-10.991,0.822-16.485,1.277
		c-0.072,0.475-0.146,0.949-0.219,1.424C209.391,94.943,211.73,96.188,214.342,97.577z M177.715,110.233
		c4.117,0,7.037,0.227,9.909-0.043c7.743-0.725,9.177-2.369,9.557-10.329c0.056-1.162,0.088-2.33,0.058-3.493
		c-0.096-3.688-2.588-4.55-5.031-2.919C186.26,97.416,182.192,103.167,177.715,110.233z"/>
</g>
</svg>
