<?xml version="1.0" encoding="utf-8"?>
<!-- Generator: Adobe Illustrator 16.0.0, SVG Export Plug-In . SVG Version: 6.00 Build 0)  -->
<!DOCTYPE svg PUBLIC "-//W3C//DTD SVG 1.1//EN" "http://www.w3.org/Graphics/SVG/1.1/DTD/svg11.dtd">
<svg version="1.1" id="圖層_1" xmlns="http://www.w3.org/2000/svg" xmlns:xlink="http://www.w3.org/1999/xlink" x="0px" y="0px"
	 width="730.685px" height="250.352px" viewBox="0 0 730.685 250.352" enable-background="new 0 0 730.685 250.352"
	 xml:space="preserve">
<g>
	<g>
		<path fill-rule="evenodd" clip-rule="evenodd" fill="#F0A516" d="M425.705,93.402c0,0-2.249,22.655,20.014,20.555
			c20.676-1.95,17.403-24.209,17.403-24.209"/>
		<polyline fill-rule="evenodd" clip-rule="evenodd" fill="#F0A516" points="272.586,105.557 302.417,124.99 331.105,100.652 		"/>
	</g>
	<g>
		<g>
			<g>
				<path fill="#5D3B1D" d="M422.794,94.298c-0.036,4.166,1.102,8.504,2.988,12.188c4.007,7.82,12.296,9.965,20.477,9.338
					c12.797-0.981,22.525-11.967,21.852-24.775c-0.135-2.542-5.937-0.38-5.822,1.791c0.147,2.796-0.35,5.662-1.182,8.318
					c-2.405,7.684-8.665,10.958-16.488,10.808c-10.281-0.198-16.084-10.063-16.002-19.459
					C428.638,90.021,422.813,92.098,422.794,94.298L422.794,94.298z"/>
			</g>
		</g>
		<g>
			<g>
				<path fill="#5D3B1D" d="M271.03,107.726c9.753,6.167,19.507,12.333,29.26,18.499c1.029,0.651,2.538,1.033,3.591,0.165
					c9.753-8.044,19.507-16.089,29.26-24.134c2.825-2.331-1.437-6.838-4.07-4.666c-9.753,8.044-19.507,16.089-29.26,24.134
					c1.197,0.055,2.394,0.109,3.591,0.165c-9.753-6.167-19.507-12.333-29.26-18.499C270.824,101.292,267.673,105.604,271.03,107.726
					L271.03,107.726z"/>
			</g>
		</g>
	</g>
</g>
<g>
	<g>
		<path fill-rule="evenodd" clip-rule="evenodd" fill="#5D3B1D" d="M238.122,84.681c10.471-0.605,20.945-1.133,31.408-1.846
			c6.271-0.427,6.916-1.328,6.807-7.758c-0.051-2.963-0.008-5.928-0.008-9.957c5.634,1.521,10.717,2.894,16.545,4.467
			c-1.364,1.829-2.227,2.52-2.447,3.376c-0.518,2.009-1.432,4.355-0.806,6.059c0.396,1.077,3.284,1.747,5.04,1.718
			c4.818-0.083,9.631-0.625,14.443-0.998c3.705-0.287,5.215-2.306,5.026-5.991c-0.176-3.453-0.038-6.923-0.038-11.497
			c4.813,1.265,9.23,2.275,13.503,3.719c0.601,0.202,1.067,2.781,0.606,3.82c-2.799,6.306-1.635,8.067,5.107,8.124
			c7.107,0.06,13.174-1.201,16.322-8.635c1.348-3.183,3.838-3.421,6.408-1.138c2.238,1.988,4.592,3.897,6.537,6.149
			c2.986,3.456,2.363,5.23-2.239,5.768c-8.763,1.021-17.562,1.778-26.362,2.42c-4.568,0.332-7.22,1.51-7.38,7.02
			c-0.077,2.661-3.203,5.232-5.027,7.963c4.099,1.601,6.894-0.691,8.982-3.786c2.721-4.03,5.478-4.124,8.854-0.998
			c1.585,1.467,3.782,2.511,4.805,4.269c0.819,1.409,0.65,3.686,0.266,5.433c-0.555,2.507-2.392,4.858-2.473,7.315
			c-0.252,7.65,0.088,15.318,0.154,22.98c0.04,4.673-8.395,11.473-11.254,8.651c-7.618-7.519-15.91-2.623-23.685-2.373
			c-4.671,0.15-9.361,3.442-13.771,5.826c-1.389,0.751-1.891,3.138-3.284,5.65c2.828,0.252,4.567,0.645,6.269,0.521
			c14.284-1.029,28.559-2.201,42.844-3.221c4.502-0.32,7.311-2.764,9.301-6.525c2.272-4.295,5.158-4.617,8.684-1.4
			c1.842,1.682,3.955,3.092,5.64,4.908c0.898,0.969,1.87,2.842,1.489,3.762c-0.417,1.011-2.301,1.826-3.633,1.979
			c-7.442,0.853-14.916,1.436-22.369,2.202c-3.056,0.314-6.088,0.857-9.291,2.209c10.599,9.391,24.08,10.941,36.717,13.654
			c-2.59,4.281-4.732,8.33-7.438,11.961c-0.72,0.967-3.38,1.275-4.771,0.793c-3.276-1.137-6.298-2.988-9.47-4.449
			c-5.376-2.475-7.087-1.574-8.389,4.105c-1.261,5.504-2.19,11.135-4.046,16.438c-3.313,9.463-8.703,13.139-18.641,14
			c-1.941-3.17-3.213-6.859-5.779-8.984c-2.616-2.166-6.506-2.795-11.033-4.563c2.135-0.539,3.096-0.961,4.069-0.994
			c3.163-0.102,6.331-0.014,9.497-0.082c8.289-0.178,10.508-1.994,12.385-10.025c2.58-11.037,1.803-11.758-9.389-11.035
			c-6.756,0.434-11.313,2.584-14.996,9.057c-8.489,14.916-22.976,22.666-38.429,28.727c-2.751,1.078-5.509,2.143-8.263,3.213
			c-0.666,0-1.334,0-2,0c1.358-1.27,2.586-2.729,4.098-3.777c7.477-5.189,15.488-9.729,22.383-15.59
			c4.277-3.637,7.066-9.117,10.115-14.023c0.58-0.934-0.833-4.453-1.2-4.434c-8.743,0.469-17.697-1.672-26.005,3.709
			c-6.326,4.098-13.561,6.795-20.391,10.115c0-0.666,0-1.334,0-2c11.771-6.834,21.242-16.189,29.185-27.102
			c2.548-3.5,1.565-5.193-2.772-4.926c-5.43,0.334-10.965,0.734-16.189,2.113c-4.875,1.287-8.203,0.785-10.223-4.086
			c0-0.666,0-1.334,0-2c10.768-0.531,21.557-0.807,32.293-1.701c5.217-0.436,7.695-4.593,7.197-10.386
			c-4.744,2.013-9.516,4.037-15.502,6.576c0-18.547,0-35.225,0-52.159c4.481,1.412,9.05,2.851,14.097,4.44
			c0-3.612-0.167-6.087,0.038-8.531c0.342-4.103-1.265-5.944-5.451-5.394c-7.238,0.953-14.604,1.332-21.688,2.948
			c-5.375,1.226-9.219,1.207-10.984-4.793C238.122,85.348,238.122,85.015,238.122,84.681z M329.143,108.184
			c-0.201-4.535-2.849-5.454-6.709-5.011c-1.812,0.209-3.649,0.191-5.476,0.276c-0.012-0.122-0.023-0.245-0.034-0.367
			c-11.901,1.136-23.809,2.213-35.7,3.435c-5.324,0.547-6.428,2.223-6.247,7.381l0.013,17.151c0.23,3.807,2.062,5.192,5.838,4.882
			c14.274-1.176,28.56-2.229,42.846-3.261c5.223-0.378,5.34-4.112,5.396-7.898L329.143,108.184z M315.185,98.859
			c-0.574-4.226-1.147-7.047-1.291-9.889c-0.152-3.031-1.223-4.72-4.501-4.462c-5.296,0.418-10.632,0.543-15.872,1.315
			c-1.547,0.228-3.525,1.955-4.099,3.457c-1.332,3.483-1.929,7.249-3.038,11.777C295.802,100.34,305.557,99.595,315.185,98.859z
			 M308.797,160.992c-1.237,2.006-2.635,3.695-3.388,5.635c-0.992,2.551-0.322,5.016,2.875,4.893
			c4.613-0.176,9.342-0.459,13.762-1.656c4.688-1.27,5.512-4.682,3.023-8.992c-3.959-6.863-15.832-8.743-23.383-3.453
			C304.149,158.656,306.464,159.82,308.797,160.992z M272.46,172.193c0.375,0.479,0.75,0.959,1.124,1.438
			c3.612,0,7.225,0.008,10.837-0.002c3.947-0.012,6.121-2.146,6.777-5.887c0.398-2.275,0.808-4.588,0.805-6.883
			c-0.006-4.289-2.977-6.143-6.039-3.342C281.077,161.988,276.923,167.26,272.46,172.193z"/>
		<path fill-rule="evenodd" clip-rule="evenodd" fill="#5D3B1D" d="M472.587,144.56c10.76,8.351,24.088,9.929,36.823,12.61
			c-2.565,4.197-4.915,8.439-7.735,12.342c-0.6,0.83-3.106,0.938-4.408,0.469c-3.113-1.119-6.024-2.797-9.031-4.221
			c-6.025-2.854-7.947-1.734-9.242,4.719c-1.109,5.527-2.297,11.096-4.133,16.41c-3.004,8.693-9.522,12.861-19.424,12.943
			c-0.217-9.01-7.275-10.953-14.668-12.516c0.155-0.605,0.311-1.213,0.467-1.818c3.313,0,6.625,0.035,9.937-0.006
			c11.222-0.141,17.089-6.625,15.771-17.797c-0.146-1.23-2.104-2.977-3.425-3.184c-2.75-0.432-5.638,0.104-8.467,0.066
			c-6.004-0.084-9.938,2.176-13.053,7.832c-7.757,14.086-20.827,22.102-35.238,28.105c-4.359,1.814-8.906,3.18-13.748,4.053
			c15.387-9.086,31.038-17.6,37.965-37.141c-10.216,0.771-19.518-2.15-28.305,3.496c-6.194,3.98-12.857,7.23-19.896,9.969
			c10.642-10.227,22.908-18.68,30.18-32.796c-8.494-1.742-15.727,0.121-22.982,1.569c-5.843,1.167-6.527,0.657-7.445-5.452
			c10.417-0.803,20.859-1.465,31.27-2.465c5.415-0.52,8.186-5.063,7.033-10.722c-3.645,1.785-7.191,3.807-10.955,5.267
			c-2.604,1.011-4.514,0.101-4.502-3.273c0.055-15.636,0.024-31.271,0.024-47.379c4.792,1.498,9.405,2.941,14.26,4.459
			c0-4.077,0.087-7.374-0.024-10.665c-0.113-3.338-2.543-3.536-5.003-3.227c-8.085,1.018-16.188,1.946-24.223,3.274
			c-6.349,1.05-6.559,1.111-7.968-5.977c9.109-0.556,18.182-1.098,27.254-1.664c10.42-0.649,11.035-1.384,9.998-11.689
			c-0.117-1.156-0.178-2.323-0.174-3.485c0.002-0.466,0.252-0.93,0.723-2.52c5.115,1.241,10.201,2.476,15.791,3.832
			c-0.871,1.674-1.295,2.198-1.424,2.787c-0.535,2.457-1.633,5.077-1.137,7.334c0.197,0.896,3.998,1.396,6.153,1.383
			c3.987-0.026,7.97-0.577,11.956-0.887c4.149-0.322,6.436-2.085,5.891-6.702c-0.327-2.772-0.061-5.616-0.061-9.65
			c5.426,0.795,10.538,1.544,15.65,2.292c-0.076,0.493-0.152,0.985-0.229,1.479c0,0.326,0.06,0.666-0.01,0.976
			c-0.615,2.732-1.252,5.459-1.883,8.188c2.649,0.447,5.287,1.165,7.951,1.286c6.332,0.288,11.279-1.978,14-8.15
			c1.617-3.669,4.121-3.957,7.002-1.244c2.18,2.052,4.537,3.958,6.46,6.229c2.784,3.287,2.134,4.843-2.278,5.331
			c-9.101,1.008-18.216,1.928-27.346,2.604c-4.429,0.328-6.287,2.016-6.749,6.689c-0.276,2.799-2.963,5.359-4.737,8.313
			c3.748,1.476,6.033-0.93,8.561-3.378c1.594-1.545,4.741-3.953,5.536-3.435c3.655,2.383,6.754,5.633,9.962,8.667
			c0.257,0.244,0.054,1.449-0.32,1.813c-5.124,5-3.738,11.411-3.775,17.462c-0.023,3.824,0.384,7.651,0.572,11.479
			c0.319,6.47-3.707,11.138-10.061,11.471c-0.996,0.053-2.738-0.494-2.936-1.135c-1.111-3.605-3.893-3.099-6.498-2.934
			c-6.15,0.388-12.463,0.17-18.381,1.58c-4.252,1.013-8.079,4.1-11.85,6.628c-0.88,0.589-1.193,2.755-0.926,4.017
			c0.137,0.641,2.182,1.322,3.308,1.236c15.438-1.183,30.896-2.244,46.269-4.02c2.652-0.307,5.515-3.384,7.264-5.891
			c2.716-3.894,5.142-4.759,8.716-1.391c1.328,1.252,3.084,2.104,4.226,3.485c1.291,1.563,2.112,3.515,3.138,5.298
			c-1.927,0.756-3.801,1.957-5.788,2.188c-7.939,0.918-15.916,1.506-23.871,2.288c-1.781,0.175-3.534,0.637-5.301,0.966
			C472.921,143.276,472.753,143.918,472.587,144.56z M472.442,96.342c-0.148-3.646-2.027-4.955-5.5-4.656
			c-14.551,1.256-29.104,2.504-43.664,3.666c-4.816,0.385-4.816,3.755-4.699,7.182l-0.139,16.655c0.25,4.85,2.756,6.434,5.328,5.808
			c16.015-1.42,30.07-2.636,44.118-3.925c5.585-0.513,4.367-4.888,4.448-8.349L472.442,96.342z M459.018,87.458
			c-0.229-0.523-0.458-1.047-0.687-1.57c-0.358-2.845-0.973-5.688-1.004-8.536c-0.033-3.016-1.334-4.365-4.184-4.176
			c-5.459,0.363-10.944,0.634-16.34,1.458c-1.447,0.221-3.188,2.071-3.787,3.575c-1.337,3.346-2.038,6.945-3.289,11.502
			C439.302,88.975,449.159,88.217,459.018,87.458z M452.464,149.822c-0.721,0.938-1.42,1.494-1.637,2.198
			c-0.691,2.251-1.204,4.558-1.785,6.843c1.846,0.428,3.688,1.176,5.541,1.209c2.805,0.049,5.661-0.174,8.416-0.699
			c3.318-0.633,6.65-1.77,7.064-5.854c0.315-3.116-5.313-10.354-8.187-10.276c-5.503,0.149-10.991,0.822-16.485,1.277
			c-0.072,0.475-0.146,0.949-0.219,1.424C447.513,147.188,449.853,148.433,452.464,149.822z M415.837,162.479
			c4.117,0,7.037,0.227,9.909-0.043c7.743-0.725,9.177-2.369,9.557-10.329c0.056-1.162,0.088-2.33,0.058-3.493
			c-0.096-3.688-2.588-4.55-5.031-2.919C424.382,149.661,420.314,155.412,415.837,162.479z"/>
	</g>
	<g>
		<path fill="#F0A516" d="M70.086,82.17c0,0-4.527-0.61-11.257-1.724c-6.77-0.997-15.68-2.732-24.626-4.335
			c-4.46-0.853-9.032-1.296-13.155-2.295c-4.103-1.102-7.811-2.581-10.938-4.063C3.843,66.876,0,63.676,0,63.676l0.241-0.913
			c0,0,4.924-0.888,11.794-0.296c3.447,0.251,7.401,0.794,11.514,1.86c4.084,1.169,8.274,3.037,12.576,4.497
			c8.573,3.021,17.181,5.909,23.559,8.378c6.405,2.358,10.645,4.058,10.645,4.058L70.086,82.17z"/>
		<path fill="#F0A516" d="M135.326,99.39c0,0-14.44-1.61-28.638-4.146c-3.543-0.652-7.222-0.795-10.494-1.594
			c-3.254-0.866-6.17-2.136-8.608-3.449c-4.909-2.521-7.845-5.481-7.845-5.481l0.241-0.91c0,0,4.017-1.13,9.53-0.895
			c2.766,0.06,5.928,0.393,9.191,1.247c3.239,0.92,6.507,2.612,9.911,3.795c13.599,4.796,26.952,10.521,26.952,10.521L135.326,99.39
			z"/>
		<path fill="#F0A516" d="M198.886,116.163c0,0-14.295-1.571-28.343-4.069c-3.51-0.643-7.15-0.775-10.385-1.564
			c-3.225-0.857-6.111-2.117-8.525-3.426c-4.851-2.503-7.748-5.457-7.748-5.457l0.237-0.91c0,0,3.977-1.137,9.438-0.919
			c2.746,0.053,5.875,0.379,9.1,1.224c3.205,0.912,6.439,2.592,9.81,3.766c13.45,4.76,26.657,10.446,26.657,10.446L198.886,116.163z
			"/>
		<path fill="#F0A516" d="M37.514,161.949c0,0-1.915,2.279-3.902,3.604c-0.497,0.314-0.95,1.15-1.433,1.252
			c-0.486,0.029-0.976-0.418-1.416-1.035c-0.867-1.119-1.549-3.188-1.549-3.188l-0.072-0.941c0,0,0.361-2.148,1.047-3.385
			c0.345-0.678,0.762-1.191,1.244-1.236c0.487,0.023,1.067,0.783,1.611,1.018c2.158,1.008,4.397,2.973,4.397,2.973L37.514,161.949z"
			/>
		<path fill="#F0A516" d="M115.132,156.033c0,0-16.825,3.418-33.726,5.877c-4.226,0.598-8.414,1.719-12.394,2.088
			c-3.979,0.295-7.736,0.096-10.968-0.309c-6.459-0.693-10.867-2.479-10.867-2.479l-0.072-0.939c0,0,4.088-2.432,10.37-4.096
			c3.129-0.891,6.811-1.654,10.796-1.963c3.984-0.244,8.291,0.232,12.561,0.184c17.079-0.131,34.232,0.699,34.232,0.699
			L115.132,156.033z"/>
		<path fill="#F0A516" d="M191.801,150.19c0,0-15.511,3.317-31.087,5.677c-3.899,0.572-7.756,1.67-11.425,2.012
			c-3.671,0.275-7.136,0.053-10.124-0.369c-5.967-0.732-10.044-2.543-10.044-2.543l-0.071-0.939c0,0,3.755-2.406,9.542-4.034
			c2.891-0.869,6.278-1.613,9.952-1.898c3.678-0.219,7.658,0.281,11.592,0.258c15.758-0.029,31.592,0.897,31.592,0.897
			L191.801,150.19z"/>
		<path fill="#F0A516" d="M90.961,233.447c0,0-8.502,6.027-17.394,11.176c-2.226,1.271-4.249,3.023-6.411,4.041
			c-2.197,0.949-4.437,1.398-6.449,1.566c-3.979,0.445-7.165-0.475-7.165-0.475l-0.376-0.863c0,0,1.496-2.959,4.527-5.57
			c1.497-1.359,3.351-2.695,5.543-3.656c2.216-0.898,4.876-1.184,7.318-1.951c9.824-3.006,20.029-5.133,20.029-5.133L90.961,233.447
			z"/>
		<path fill="#F0A516" d="M119.988,220.795c0,0-3.427,3.813-7.231,6.748c-0.96,0.717-1.709,1.918-2.685,2.412
			c-1.004,0.432-2.133,0.395-3.195,0.152c-2.076-0.387-3.987-1.859-3.987-1.859l-0.377-0.865c0,0,0.223-2.402,1.353-4.188
			c0.54-0.943,1.283-1.793,2.282-2.236c1.028-0.379,2.419-0.111,3.597-0.324c4.741-0.793,9.868-0.705,9.868-0.705L119.988,220.795z"
			/>
		<path fill="#F0A516" d="M204.692,183.871c0,0-4.47,2.563-11.258,6.225c-6.739,3.77-15.896,8.41-24.997,13.178
			c-4.571,2.334-8.969,5.057-13.344,7.055c-4.407,1.904-8.708,3.252-12.483,4.203c-7.521,1.988-13.063,2.094-13.063,2.094
			l-0.376-0.863c0,0,3.852-3.986,10.428-8.141c3.263-2.117,7.183-4.354,11.575-6.289c4.441-1.838,9.434-3.211,14.251-4.971
			c9.685-3.418,19.32-6.971,26.668-9.342c7.299-2.48,12.224-4.012,12.224-4.012L204.692,183.871z"/>
	</g>
	<path fill="#F0A516" d="M710.528,197.159c0,0,5.545-0.821,10.801-0.635c1.311,0.067,2.781-0.422,3.947-0.157
		c1.146,0.341,2.075,1.157,2.795,2.104c1.479,1.773,2.063,4.352,2.063,4.352l-0.283,0.989c0,0-1.873,1.871-4.064,2.582
		c-1.119,0.415-2.335,0.615-3.485,0.287c-1.133-0.397-2.114-1.593-3.257-2.234c-4.549-2.643-8.804-6.294-8.804-6.294
		L710.528,197.159z"/>
	<path fill="#F0A516" d="M613.423,169.121c0,0,5.554,0.961,13.824,2.62c8.305,1.53,19.255,4.012,30.249,6.353
		c5.479,1.223,11.087,2.004,16.161,3.37c5.045,1.476,9.603,3.345,13.45,5.18c7.721,3.576,12.46,7.354,12.46,7.354l-0.284,0.991
		c0,0-6.022,0.664-14.462-0.424c-4.233-0.494-9.088-1.348-14.141-2.787c-5.025-1.546-10.182-3.875-15.471-5.763
		c-10.551-3.879-21.137-7.617-28.982-10.747c-7.88-3.008-13.093-5.155-13.093-5.155L613.423,169.121z"/>
	<path fill="#F0A516" d="M547.268,150.02c0,0,13.699,1.532,27.105,4.074c3.348,0.653,6.854,0.754,9.936,1.571
		c3.055,0.889,5.764,2.221,8.02,3.61c4.534,2.658,7.161,5.822,7.161,5.822l-0.289,0.989c0,0-3.906,1.281-9.157,1.109
		c-2.646-0.025-5.651-0.343-8.71-1.216c-3.042-0.953-6.066-2.735-9.246-3.967c-12.697-4.998-25.104-11.004-25.104-11.004
		L547.268,150.02z"/>
	<path fill="#F0A516" d="M651.83,111.654c0,0,3.658-1.052,9.155-2.415c5.492-1.489,12.84-3.016,20.178-4.695
		c3.676-0.782,7.32-2.025,10.775-2.532c3.466-0.393,6.73-0.249,9.54,0.115c5.618,0.631,9.447,2.496,9.447,2.496l0.06,1.03
		c0,0-3.553,2.746-9.016,4.691c-2.729,1.025-5.933,1.938-9.392,2.37c-3.469,0.315-7.21-0.05-10.924,0.049
		c-7.438,0.078-14.86,0.306-20.451,0.138c-5.582-0.044-9.311-0.22-9.311-0.22L651.83,111.654z"/>
	<path fill="#F0A516" d="M628.885,113.572c0,0,3.261-2.61,6.607-4.172c0.841-0.372,1.634-1.316,2.437-1.452
		c0.813-0.064,1.609,0.403,2.317,1.055c1.404,1.181,2.458,3.414,2.458,3.414l0.091,1.028c0,0-0.678,2.377-1.858,3.774
		c-0.595,0.76-1.303,1.352-2.111,1.425c-0.818,0-1.755-0.8-2.643-1.026c-3.564-0.987-7.214-3.019-7.214-3.019L628.885,113.572z"/>
	<path fill="#F0A516" d="M546.499,120.458c0,0,18.334-3.869,36.746-6.692c4.604-0.686,9.165-1.946,13.496-2.377
		c4.343-0.354,8.438-0.168,11.976,0.249c7.05,0.71,11.872,2.628,11.872,2.628l0.084,1.027c0,0-4.434,2.693-11.272,4.561
		c-3.412,0.998-7.419,1.865-11.768,2.235c-4.345,0.291-9.048-0.192-13.699-0.106c-18.63,0.275-37.347-0.498-37.347-0.498
		L546.499,120.458z"/>
	<path fill="#F0A516" d="M654.116,34.602c0,0,17.809-11.285,36.155-21.374c4.599-2.499,8.897-5.654,13.32-7.759
		c4.458-2.014,8.887-3.302,12.815-4.115c7.797-1.769,13.742-1.298,13.742-1.298l0.535,1.17c0,0-3.553,4.792-10.023,9.501
		c-3.188,2.424-7.078,4.916-11.528,6.949c-4.493,1.943-9.694,3.108-14.602,4.924c-19.667,7.186-39.88,13.173-39.88,13.173
		L654.116,34.602z"/>
	<path fill="#F0A516" d="M594.508,62.05c0,0,10.6-7.373,21.63-13.791c2.767-1.585,5.293-3.697,7.971-4.99
		c2.717-1.225,5.465-1.891,7.926-2.23c4.869-0.793,8.716,0.001,8.716,0.001l0.428,0.936c0,0-1.931,3.421-5.737,6.57
		c-1.871,1.63-4.178,3.259-6.889,4.497c-2.738,1.169-5.988,1.684-9.003,2.723c-12.095,4.089-24.613,7.221-24.613,7.221
		L594.508,62.05z"/>
	<path fill="#F0A516" d="M537.84,87.798c0,0,9.526-6.886,19.483-12.815c2.498-1.464,4.76-3.455,7.188-4.635
		c2.457-1.108,4.972-1.67,7.233-1.92c4.468-0.607,8.044,0.308,8.044,0.308l0.43,0.939c0,0-1.662,3.297-5.062,6.261
		c-1.674,1.541-3.752,3.063-6.202,4.187c-2.488,1.055-5.476,1.45-8.222,2.367c-11.021,3.6-22.471,6.247-22.471,6.247L537.84,87.798z
		"/>
</g>
</svg>
